# xmcd
#
# Track frame offsets:
# 150
# 16028
# 30701
# 54198
# 71907
# 83394
# 105109
# 126349
# 144309
# 157836
#
# Disc length: 2317 seconds
#
#
# Revision: 0
# Processed by: cddbd v1.5PL3 Copyright (c) Steve Scherf et al.
# Submitted via: FreeRIP 2.60 
#
DISCID=6a090b0a
DTITLE=Reverb Rockers - Nickel Plated Blues
DYEAR=2003
DGENRE=Blues
TTITLE0=Pre-Meditated Hindsight Blues
TTITLE1=She's No Longer (My Main Squeeze)
TTITLE2=Let Old Dogs Lay
TTITLE3=Workin' Jerk
TTITLE4=Squeeky Toy Blues
TTITLE5=Don't Wanna Leave Her
TTITLE6=Nickel Plated Blues
TTITLE7=Owed To Son - She Make Me Wanna Rock
TTITLE8=She's Got The Sugar
TTITLE9=Gyratin' Vibratin' Boogie
EXTD=Bluesfestradio.com
EXTT0=
EXTT1=
EXTT2=
EXTT3=
EXTT4=
EXTT5=
EXTT6=
EXTT7=
EXTT8=
EXTT9=
PLAYORDER=
